<svg version="1.1" xmlns="http://www.w3.org/2000/svg" xmlns:xlink="http://www.w3.org/1999/xlink" width="65.70134" height="52.05086" viewBox="0,0,65.70134,52.05086"><g transform="translate(-207.35059,-153.97457)"><g data-paper-data="{&quot;isPaintingLayer&quot;:true}" fill-rule="nonzero" stroke-linecap="butt" stroke-linejoin="miter" stroke-miterlimit="10" stroke-dasharray="" stroke-dashoffset="0" style="mix-blend-mode: normal"><g><path d="M214.55937,201.7495c0,-10.08239 0,-37.2659 0,-43.09246c0,-2.14696 1.7036,-4.18247 3.57267,-4.18247c5.39941,0 32.05637,0 42.88919,0c2.83725,0 4.589,2.26123 4.589,4.589c0,5.9136 0,32.00132 0,42.27939c0,2.59522 -2.26123,4.18247 -4.589,4.18247c-5.99323,0 -32.70759,0 -42.68593,0c-2.35347,0 -3.77593,-1.42182 -3.77593,-3.77593z" fill="#66ecff" stroke="#0033ff" stroke-width="1"/><text transform="translate(217.11571,168.86873) scale(0.28439,0.28439)" font-size="40" xml:space="preserve" fill="#000000" fill-rule="nonzero" stroke="none" stroke-width="1" stroke-linecap="butt" stroke-linejoin="miter" stroke-miterlimit="10" stroke-dasharray="" stroke-dashoffset="0" font-family="Sans Serif" font-weight="normal" text-anchor="start" style="mix-blend-mode: normal"><tspan x="0" dy="0">文本统一</tspan><tspan x="0" dy="46.150000000000006px">  修改器</tspan></text><text transform="translate(207.55109,198.41984) scale(0.401,0.401)" font-size="40" xml:space="preserve" fill="#ffffff" fill-rule="nonzero" stroke="none" stroke-width="1" stroke-linecap="butt" stroke-linejoin="miter" stroke-miterlimit="10" stroke-dasharray="" stroke-dashoffset="0" font-family="Sans Serif" font-weight="normal" text-anchor="start" style="mix-blend-mode: normal"><tspan x="0" dy="0">（{}-&lt;}）</tspan></text><path d="M229.71822,201.7495v-16.05804h6.09799v16.05804z" fill-opacity="0.52941" fill="#0a00ff" stroke="none" stroke-width="0"/><path d="M249.75993,202.27764v-16.05804h6.09798v16.05804z" fill-opacity="0.52941" fill="#0a00ff" stroke="none" stroke-width="0"/></g></g></g></svg>